# xmcd
#
# Track frame offsets:
#	150
#	14939
#	30333
#	45532
#	65165
#	83438
#	99995
#	114839
#	134117
#	155812
#	174217
#
# Disc length: 2494 seconds
# Revision: 0
# Processed by: cddbd v1.5.2PL0 Copyright (c) Steve Scherf et al.
# Submitted via: dBpowerAMP V12.0
#
DISCID=8a09bc0b
DTITLE=Doug Allen - Mockingbird
DYEAR=2016
DGENRE=Country
TTITLE0=She Said Yes!
TTITLE1=Drawn In
TTITLE2=Mockingbird
TTITLE3=Ithaca
TTITLE4=Clumsy and Cool
TTITLE5=Everything I Own
TTITLE6=Highs and Lows
TTITLE7=I Wish You Could Know
TTITLE8=Choose Love
TTITLE9=Fathers
TTITLE10=Someone For Someone… This Christmas Eve
EXTD=
EXTT0=
EXTT1=
EXTT2=
EXTT3=
EXTT4=
EXTT5=
EXTT6=
EXTT7=
EXTT8=
EXTT9=
EXTT10=
PLAYORDER=
